<svg id="b7a0f4f5-91ae-45dc-91e1-1a6d72befaf9" data-name="Layer 1" xmlns="http://www.w3.org/2000/svg" viewBox="0 0 20 20"><title>catch-title-mgt</title><path id="f0ad026d-98fd-4c87-9edf-595f51470f05" data-name="Segment-1" d="M9.91,0a9.87,9.87,0,0,1,8.58,5.07,10.33,10.33,0,0,1,0,10.13L14.67,13a5.71,5.71,0,0,0,0-5.63A5.48,5.48,0,0,0,9.91,4.51Z" style="fill:#d15cae;fill-rule:evenodd"/><path id="eb91a31f-cfa2-4280-b896-97e3c22f901b" data-name="Segment-2" d="M18.58,15a10.07,10.07,0,0,1-8.67,4.86A10.06,10.06,0,0,1,1.24,15l3.85-2.15a5.65,5.65,0,0,0,9.63,0Z" style="fill:#910067;fill-rule:evenodd"/><path id="ae965200-d1b6-459f-b0ba-0c69c169b5e8" data-name="Segment-3" d="M1.33,15.2a10.33,10.33,0,0,1,0-10.13A9.86,9.86,0,0,1,9.91,0V4.51A5.49,5.49,0,0,0,5.14,7.32a5.76,5.76,0,0,0,0,5.63Z" style="fill:#b60081;fill-rule:evenodd"/></svg>