<svg id="eaef460a-4cad-47a8-ba9f-0d855ec4f8e0" data-name="レイヤー 1" xmlns="http://www.w3.org/2000/svg" viewBox="0 0 22 19"><path id="f271bffa-bf15-4158-91bc-c62493c28bdc" data-name="path-1" d="M11.524,0C17.075,0,22,3.687,22,8.234s-4.925,8.234-10.476,8.234a16.921,16.921,0,0,1-2.495-.182q.045.655.12,1.321l.075.616a.7.7,0,0,1-1.067.684,12.018,12.018,0,0,1-3.789-4.161C1.67,13.238,0,10.882,0,8.234,0,3.687,4.925,0,11.524,0Zm0,1.362c-5.843,0-10.162,3.13-10.162,6.872,0,1.991,1.227,3.867,3.414,5.175l.257.148.32.179.187.315a13.04,13.04,0,0,0,1.912,2.54l.253.247-.034-.46-.115-1.69,1.675.251a15.478,15.478,0,0,0,2.293.167c4.945,0,9.114-3.226,9.114-6.872S16.469,1.362,11.524,1.362ZM7,7A1,1,0,1,1,6,8,1,1,0,0,1,7,7Zm4,0a1,1,0,1,1-1,1A1,1,0,0,1,11,7Zm4,0a1,1,0,1,1-1,1A1,1,0,0,1,15,7Z" style="fill:#b60081"/></svg>