<svg id="a7421d42-ce51-41d4-859a-fa0a2ce4eb59" data-name="Layer 1" xmlns="http://www.w3.org/2000/svg" viewBox="0 0 28 28"><title>checkbox-off</title><path id="a88f37d7-9563-44b6-916d-cb898440c838" data-name="path-1" d="M14,4h0A10,10,0,0,1,24,14h0A10,10,0,0,1,14,24h0A10,10,0,0,1,4,14H4A10,10,0,0,1,14,4Z" style="fill:#e8e8e8;fill-rule:evenodd"/><path d="M9.807,13.118a.714.714,0,0,0-1.052.967l3.328,3.621a.715.715,0,0,0,1.031.022l6.08-6.08a.714.714,0,0,0-1.01-1.01L12.63,16.191Z" style="fill:#fff"/></svg>