<?xml version="1.0" encoding="utf-8"?>
<!-- Generator: Adobe Illustrator 24.2.3, SVG Export Plug-In . SVG Version: 6.00 Build 0)  -->
<svg version="1.1" id="レイヤー_1" xmlns="http://www.w3.org/2000/svg" xmlns:xlink="http://www.w3.org/1999/xlink" x="0px"
	 y="0px" viewBox="0 0 28 28" style="enable-background:new 0 0 28 28;" xml:space="preserve">
<path id="path-1_1_" style="fill:#B60081;" d="M14,4c5.5228462,0,10,4.4771519,10,10s-4.4771538,10-10,10S4,19.5228462,4,14
	S8.4771519,4,14,4z M14,5.4000001C9.250351,5.4000001,5.4000001,9.250351,5.4000001,14S9.250351,22.6000004,14,22.6000004
	S22.6000004,18.749649,22.6000004,14S18.749649,5.4000001,14,5.4000001z M14,12
	c0.5128355,0,0.9355068,0.3820038,0.9932718,0.8741436L15,12.9895449v6.0209112C15,19.5569649,14.5522842,20,14,20
	c-0.5128355,0-0.9355068-0.3820038-0.9932718-0.8741436L13,19.0104561v-6.0209112C13,12.4430342,13.4477148,12,14,12z M14,8
	c0.5128355,0,0.9355068,0.3860397,0.9932718,0.883379L15,9v0.5762434c0,0.5522852-0.4477158,1-1,1
	c-0.5128355,0-0.9355068-0.3860407-0.9932718-0.883379L13,9.5762434V9C13,8.4477158,13.4477148,8,14,8z"/>
</svg>
