<svg id="a0ab8c17-a488-4d3d-ba12-aae702a7a5cb" data-name="レイヤー 1" xmlns="http://www.w3.org/2000/svg" viewBox="0 0 28 28"><path id="ea2b4c73-5d0b-416c-a3ae-7a65dd7670ea" data-name="path-1" d="M19.714,6.25a1.063,1.063,0,0,1,1.036,1.1h0v13.3a1.063,1.063,0,0,1-1.036,1.1H10a.75.75,0,0,1,0-1.5h9.25V7.75H10a.75.75,0,0,1,0-1.5h9.714Zm-5.64,4.933,2.669,2.336a.578.578,0,0,1,.008.956l-2.677,2.342a.779.779,0,0,1-1,0,.574.574,0,0,1,0-.884l1.5-1.308H7.709a.63.63,0,1,1,0-1.25h6.865l-1.5-1.308a.574.574,0,0,1,0-.884A.779.779,0,0,1,14.074,11.183Z" style="fill:#fff"/></svg>