<svg id="a5c15f88-b505-4c5d-a062-ddd798bc2beb" data-name="Layer 1" xmlns="http://www.w3.org/2000/svg" viewBox="0 0 28 28"><title>pdf</title><path d="M17,7l3,3V21H8V7Zm-.5,1H9V20H19V10.5H16.5Zm-5.1,5.108a1.369,1.369,0,0,1,.784.168.845.845,0,0,1,.368.732.815.815,0,0,1-.5.78,1.529,1.529,0,0,1-.548.088H10.96V16h-.628V13.108Zm2.5,0c.932,0,1.608.348,1.608,1.432,0,1.172-.708,1.46-1.7,1.46H12.9V13.108Zm3.935,0v.448H16.55v.772h1.216v.444H16.55V16h-.616V13.108Zm-3.991.444h-.32v2h.3c.712,0,1.044-.3,1.044-1.008C14.871,13.824,14.531,13.552,13.851,13.552Zm-2.523,0H10.96v.88h.324c.316,0,.636-.072.636-.452C11.92,13.62,11.628,13.552,11.328,13.552ZM17.5,8.91V9.5h.59Z" style="fill:#b60081"/></svg>