<svg id="fd8aaea2-5006-4fe9-9dd5-3e24fefcccf1" data-name="Layer 1" xmlns="http://www.w3.org/2000/svg" viewBox="0 0 28 28"><title>question</title><path d="M7.85,10.194c.175-3.09,2.358-5.522,6.137-5.522,3.531,0,6.006,2.256,6.006,5.244,0,2.168-1.084,3.706-3.091,4.995-1.919,1.231-2.461,2.066-2.461,3.692l0,.4H12.494v-.676c-.014-1.933.835-3.164,2.886-4.5,1.831-1.216,2.549-2.241,2.549-3.823,0-2.08-1.656-3.589-4.014-3.589a3.923,3.923,0,0,0-4.16,3.779ZM13.489,21a1.37,1.37,0,1,1-1.362,1.377A1.357,1.357,0,0,1,13.489,21Zm-.021-3a1.034,1.034,0,0,1,.973,1,.955.955,0,0,1-.973.9.875.875,0,0,1-.975-.9A.979.979,0,0,1,13.468,18ZM8.955,9.247a.841.841,0,0,1,.8.947.989.989,0,0,1-.951.815.879.879,0,0,1-.953-.815A1.052,1.052,0,0,1,8.955,9.247Z" style="fill:#b60081"/></svg>